<?xml version="1.0" encoding="utf-8"?>
<!-- Generator: Adobe Illustrator 17.1.0, SVG Export Plug-In . SVG Version: 6.00 Build 0)  -->
<!DOCTYPE svg PUBLIC "-//W3C//DTD SVG 1.1//EN" "http://www.w3.org/Graphics/SVG/1.1/DTD/svg11.dtd">
<svg version="1.1" id="Ebene_2" xmlns="http://www.w3.org/2000/svg" xmlns:xlink="http://www.w3.org/1999/xlink" x="0px" y="0px"
	 viewBox="0 0 1000 1000" enable-background="new 0 0 1000 1000" xml:space="preserve">
<g>
	<path d="M410.9,999.5c-5.3,0-10.4-2.1-14.1-5.9c-3.8-3.8-5.9-8.8-5.9-14.1V434.1H189.6c-11,0-20-9-20-20V236c0-11,9-20,20-20h201.3
		V22.5c0-11,9-20,20-20h178.1c11,0,20,9,20,20V216h201.3c11,0,20,9,20,20v178.1c0,11-9,20-20,20H609.1v545.3c0,11-8.9,20-20,20
		L410.9,999.5C410.9,999.5,410.9,999.5,410.9,999.5z M209.6,394.1h201.3c11,0,20,9,20,20v545.4l138.1-0.1V414.1c0-11,9-20,20-20
		h201.3V256H589.1c-11,0-20-9-20-20V42.5H430.9V236c0,11-9,20-20,20H209.6V394.1z"/>
</g>
<g>
	<g>
		<path d="M483.1,313.8c0,8.3,6.7,15.1,15.1,15.1c8.3,0,15.1-6.7,15.1-15.1s-6.7-15.1-15.1-15.1
			C489.9,298.7,483.1,305.5,483.1,313.8z"/>
	</g>
</g>
<g>
	<path d="M722.1,313.8c0,7.7-6.3,14-14,14H553.2c-7.7,0-14-6.3-14-14s6.3-14,14-14h154.9C715.9,299.8,722.1,306.1,722.1,313.8z"/>
</g>
</svg>
