<?xml version="1.0" encoding="utf-8"?>
<!-- Generator: Adobe Illustrator 17.1.0, SVG Export Plug-In . SVG Version: 6.00 Build 0)  -->
<!DOCTYPE svg PUBLIC "-//W3C//DTD SVG 1.1//EN" "http://www.w3.org/Graphics/SVG/1.1/DTD/svg11.dtd">
<svg version="1.1" id="Ebene_1" xmlns="http://www.w3.org/2000/svg" xmlns:xlink="http://www.w3.org/1999/xlink" x="0px" y="0px"
	 viewBox="-244 -244 1000 1000" enable-background="new -244 -244 1000 1000" xml:space="preserve">
<path d="M648.4-53.9c-16.1-18.2-47.1,1.5-28.9,26.5c62.9,80.6,97.4,180.8,97.4,283.4c0,254.2-206.8,460.9-460.9,460.9
	c-30.6,0-61.2-3-90.9-9c-10.6-2.1-20.9,4.7-23,15.3c-2.1,10.6,4.7,20.9,15.3,23c32.2,6.4,65.4,9.7,98.6,9.7
	c133.6,0,259.1-52,353.6-146.4S756,389.6,756,256C756,143.6,717.8,34,648.4-53.9z"/>
<path d="M435.8-170.1c5.1,0,10.2-2.1,13.8-5.7c3.6-3.7,5.7-8.7,5.7-13.8c0-5.1-2.1-10.2-5.7-13.8c-3.6-3.6-8.7-5.7-13.8-5.7
	c-5.2,0-10.2,2.1-13.8,5.7c-3.6,3.7-5.7,8.7-5.7,13.8c0,5.2,2.1,10.2,5.7,13.8C425.7-172.2,430.7-170.1,435.8-170.1z"/>
<path d="M77,682.5c-5.1,0-10.2,2.1-13.8,5.7s-5.7,8.7-5.7,13.8c0,5.2,2.1,10.2,5.7,13.8s8.7,5.7,13.8,5.7s10.2-2.1,13.8-5.7
	s5.7-8.7,5.7-13.8s-2.1-10.2-5.7-13.8S82.1,682.5,77,682.5z"/>
<g>
	<g>
		<path d="M559.1,81.1C512.4,0.2,436.9-57.7,346.6-81.9c-90.3-24.2-184.6-11.8-265.5,35C0.2-0.2-57.7,75.2-81.9,165.5
			S-93.7,350.1-47,431c41.9,72.6,108.5,127.8,187.6,155.4c37.5,13.1,76.6,19.6,115.7,19.6c42.5,0,84.9-7.7,124.9-23.1
			c7-2.7,10.6-10.6,7.9-17.7s-10.6-10.6-17.7-7.9C264.8,598.4,149.3,579.7,63,515L75.3,451l5.9-1.9c22.3-7.2,34.6-31.3,27.3-53.6
			l-4.3-13.3c-1-3.1-1-6.3,0-9.4c3.8-11.6,2.4-24.3-3.7-34.8c-6.2-10.5-16.6-17.9-28.5-20.2l-30.9-6l-59.5-45.3
			c-3.6-2.7-8.2-3.5-12.5-2.1l-34.9,11.3c-0.7-12.5-0.8-24.9,0-37.3c1.4,1.3,2.3,2.2,2.8,2.7c0.7,1.1,1.5,2.2,2.5,3.1
			c2.8,2.6,5.4,3.8,10.8,3.8c5,0,12.3-1,24.5-2.8c11.5-1.7,23-3.6,23.1-3.6c4.6-0.8,8.5-3.8,10.3-8.1c1.8-4.3,1.3-9.2-1.3-13.1
			l-16.8-24.6l24-17.2c1.6-1.1,2.9-2.6,3.9-4.3l37.2-65l15-16.1C85.6,76.7,90,52.7,81.5,31.9C76.4,19.7,67.6,9.5,56.5,2.6
			c11.9-9.4,24.7-18.1,38.2-25.9C144.5-52,198.7-65.9,252.3-66.4l-24.4,30.6L137.4-4c-3.7,1.3-6.6,4.1-8.1,7.7L104,64.9
			c-1.8,4.4-1.2,9.3,1.5,13.2l36.9,51.7c-5.3,4.8-10.4,11.9-16.6,20.6c-2.7,3.8-5.2,7.4-7,9.5c-1.5,1.8-3.1,3.5-4.6,5.2
			c-7.9,8.9-16.2,18.2-22,30.5C79.4,222.7,82,254.3,99,277.9c16.4,22.9,43.5,34.5,72.4,31.1c4.7-0.6,9.1-1.6,13.4-2.7
			c11.7-2.9,15.4-3.2,19.2,0.3c1.8,1.7,2,2,2,7.8c0,3.7-0.1,8.3,1.2,13.5c2,8.4,7.3,14.2,11.6,18.9c2.1,2.3,4.3,4.7,5,6.3
			c4.3,10.2,2.4,15.9-1.7,28.3c-0.3,1.1-0.7,2.1-1.1,3.3c-6.2,19.1,2.4,38.1,10,54.9c2.5,5.4,4.8,10.6,6.3,15.1
			c12.3,36.5,21.5,44.8,28.9,48.2c3.9,1.8,7.9,2.5,11.9,2.5c19.7,0,40.3-18.3,49.7-29.9c5.9-7.3,7.4-14.6,8.5-19.9
			c0.5-2.6,1-4.7,1.7-6.1c1.2-2.1,2.7-3.7,4.5-5.8c3.7-4.1,8.2-9.3,11.2-18.6c2.2-7.1,3.9-8.8,9.3-14.6c0.9-1,1.9-2.1,3-3.2
			c18.2-19.8,13.5-35,8.6-51c-4.2-13.5,3.1-22.1,20.8-38.6c7.7-7.1,15.6-14.5,21.7-23.4c2.7-3.9,10.8-15.7,5.8-27.4
			c-4.9-11.5-17.5-13.4-27.6-14.9c-4-0.6-10-1.5-11.9-2.8c-8.5-5.5-13.6-17.1-18.6-28.2c-1-2.2-2-4.4-3-6.5
			c-1.8-3.8-3.6-8.4-5.4-13.3c-5-12.9-10.6-27.5-20.2-37.6c-8.6-9.1-24.9-13.5-39.2-17.4c-4.8-1.3-9.4-2.5-12.4-3.6
			c-2.5-0.9-5.2-1.1-7.9-0.5c-7,1.6-11.3,3.4-14.6,6c-0.9,0.7-3.4,2.9-4.9,6.5c-5-2.4-11.9-7-16.1-9.8c-0.1-0.1-0.2-0.1-0.3-0.2
			c1.4-5.7,0.1-10.3-1.2-13.2c-7.6-16.2-33-14.9-38-14.5c-2.8,0.2-6.4,0.4-10.2,0.5c-6,0.2-12.6,0.4-19.1,1.2l0.3-0.9
			c5-13.8,18.1-23.1,32.8-23.1h7.8c7.5,0,13.7-6.1,13.7-13.7c0-7.5-6.1-13.7-13.7-13.7h-7.8c-21.8,0-41.7,11.5-52.9,29.5l-20.4-28.6
			l20.1-48.6l88.5-31c2.4-0.9,4.6-2.4,6.2-4.4L286.2-65C386.6-55.4,481.2,0.9,535.4,94.8c14.4,25,25.1,51.3,32.2,78.3l-5.8,5.2
			c-7.6,6.7-12,16.4-12.2,26.6c0,0.1,0,0.2,0,0.3l-9.4-26c-1.4-3.9-3.5-7.4-6.2-10.6l-16.8-19.7c-6.5-7.6-16-12-26.1-12h-20.6
			c-7.3,0-14,4-17.5,10.5c-3.5,6.5-3.1,14.2,1,20.3l2.1,3.1c-13.3,11.5-28.7,20.6-45.1,26.8l-28.3-54.1v-12.1c0-3.7-1.5-7.3-4.2-9.9
			l-25.4-24.3c-1.4-1.3-3.1-2.4-4.9-3l-22.9-8c-7.1-2.5-14.9,1.2-17.4,8.4c-2.5,7.1,1.2,14.9,8.4,17.4l20.1,7.1l19.1,18.2v9.6
			c0,2.2,0.5,4.4,1.6,6.3l35.4,67.8c3.2,6.1,10.4,8.9,16.8,6.5l10.3-3.8c23.9-8.8,46.1-23,64.2-41.1c4.6-4.6,5.3-11.8,1.7-17.2
			l-0.7-1.1h6.5c2,0,4,0.9,5.3,2.4l16.8,19.7c0.5,0.6,1,1.4,1.2,2.1l18.6,51.1c1.6,4.4,5.3,7.7,9.9,8.7c1,0.2,2,0.3,3,0.3
			c3.6,0,7.1-1.4,9.7-4l8.8-8.8c5.6-5.6,9.5-12.7,11.3-20.6c13.7,109.7-29.3,223.1-120.2,294.4c-5.9,4.7-7,13.3-2.3,19.2
			c4.7,5.9,13.3,7,19.2,2.3c65.6-51.5,110.7-125.2,126.9-207.4C615.8,240.7,601.5,154.5,559.1,81.1z M-29.4,292.6L27,335.4
			c1.7,1.3,3.6,2.1,5.7,2.5l34,6.6c4.3,0.8,8,3.4,10.2,7.2c2.2,3.8,2.7,8.2,1.3,12.4c-2.8,8.6-2.8,17.8,0,26.4l4.3,13.3
			c2.6,8-1.8,16.6-9.8,19.1l-13.6,4.4c-4.7,1.5-8.3,5.5-9.2,10.4L39,495c-24-22-45.1-48-62.3-77.7c-20.9-36.2-34-74.8-39.7-113.9
			L-29.4,292.6z M50.3,74.5L34.2,91.7c-0.7,0.8-1.3,1.6-1.9,2.5L-4.2,158l-32.5,23.2c-6,4.3-7.5,12.7-3.3,18.8l12.1,17.8
			c-7,1-13.3,1.9-17.5,2.4c-0.8-0.8-1.6-1.6-2.5-2.4c-3.2-3-7.8-7.1-14.5-12.9C-51.2,136.2-18.1,71.5,34,22.1
			c10,3.1,18.2,10.6,22.2,20.3C60.7,53.3,58.4,65.9,50.3,74.5z M161.8,149.2c6.1-3.4,20.3-3.9,30.6-4.3c4.1-0.1,8.1-0.3,11.5-0.6
			c1.8-0.2,3.9-0.1,5.8,0c-0.9,2.2-1.1,4.6-0.8,7.1c0.7,4.2,3.3,7.9,7.1,10c2.6,1.4,6.1,3.8,9.9,6.3c10.7,7.1,22.8,15.2,34.2,15.9
			c10.3,0.7,16.1-5.2,18.6-7.7c0.2-0.2,0.4-0.4,0.6-0.6c1.4-1.1,2.7-2.6,3.7-4.5c2.2,0.6,4.5,1.2,6.8,1.9c8.1,2.2,23.2,6.3,26.5,9.8
			c5.9,6.3,10.5,18.2,14.6,28.7c2.1,5.3,4,10.3,6.2,15c0.9,2,1.9,4.1,2.8,6.1c6.3,14.1,13.5,30,28.6,39.9c6.9,4.5,15.3,5.8,22.7,6.9
			c0.9,0.1,1.9,0.3,3,0.5c-4.4,6.2-10.7,12-17.3,18.2c-16.9,15.8-38,35.4-28.3,66.7c4.6,14.8,4.8,16.4-2.6,24.4
			c-1,1.1-1.9,2.1-2.8,3c-6.3,6.7-11.3,12-15.4,25c-1.2,3.8-2.7,5.5-5.6,8.7c-2.3,2.5-5.1,5.7-7.6,10.1c-3.1,5.3-4.1,10.4-4.9,14.5
			c-0.8,4-1.3,6.1-2.9,8c-3.6,4.4-10.3,10.9-17.3,15.3c-6.4,4.1-10.2,4.6-11.5,4.6c-1.5-1.6-6.7-8.4-14.7-32.1
			c-2-5.8-4.7-11.9-7.3-17.7c-5.8-12.8-11.8-26.1-8.9-35.1c0.3-1.1,0.7-2.1,1-3.1c4.7-14.3,9.1-27.7,0.9-47.3
			c-2.5-6-6.5-10.3-10-14.2c-2.3-2.5-4.8-5.3-5.2-6.9c-0.5-2-0.5-4.3-0.4-6.9c0-7.1,0.1-17.9-10.6-28c-15.1-14.2-32.8-9.8-44.4-6.9
			c-3.6,0.9-7,1.7-10,2.1c-19.2,2.3-36.4-5-47.1-19.9c-11.2-15.6-12.8-36.6-4.2-54.7c4.2-8.8,10.4-15.9,17.7-24
			c1.6-1.8,3.2-3.6,4.8-5.4c2.7-3.1,5.6-7.2,8.7-11.6C151.9,160.9,158.8,151.1,161.8,149.2z"/>
	</g>
</g>
<path d="M14.3-174.5C-101.4-107.8-184.2,0-218.9,128.9s-17,263.7,49.6,379.4c16.6,28.7,36,55.8,57.6,80.6c7.1,8.1,19.5,8.9,27.6,1.8
	c8.1-7.1,8.9-19.5,1.8-27.6c-20-22.8-37.9-47.8-53.2-74.3c-126.9-220.2-51-502.6,169.2-629.5c88.9-51.2,192.9-71.3,294.2-57.1
	c30.8,3.4,32.4-33.4,8.5-38.2C225.7-252.3,111.7-230.6,14.3-174.5z"/>
</svg>
