<?xml version="1.0" encoding="utf-8"?>
<!-- Generator: Adobe Illustrator 17.1.0, SVG Export Plug-In . SVG Version: 6.00 Build 0)  -->
<!DOCTYPE svg PUBLIC "-//W3C//DTD SVG 1.1//EN" "http://www.w3.org/Graphics/SVG/1.1/DTD/svg11.dtd">
<svg version="1.1" id="Layer" xmlns="http://www.w3.org/2000/svg" xmlns:xlink="http://www.w3.org/1999/xlink" x="0px" y="0px"
	 viewBox="-244 -244 1000 1000" enable-background="new -244 -244 1000 1000" xml:space="preserve">
<path d="M214.5-200V627L-87.1,310.3c-15.8-16.6-42-17.2-58.6-1.4c-16.6,15.8-17.2,42-1.4,58.6l344.5,361.7
	c15.7,15.7,36.5,24.3,58.6,24.3c22.1,0,43-8.6,59.3-25l343.8-361c7.6-8,11.4-18.3,11.4-28.6c0-10.9-4.3-21.9-12.9-30
	c-16.6-15.8-42.8-15.2-58.6,1.4l-301.7,318V-200c0-22.9-18.6-41.5-41.5-41.5S214.5-222.9,214.5-200L214.5-200z"/>
</svg>
