<?xml version="1.0" encoding="utf-8"?>
<!-- Generator: Adobe Illustrator 17.1.0, SVG Export Plug-In . SVG Version: 6.00 Build 0)  -->
<!DOCTYPE svg PUBLIC "-//W3C//DTD SVG 1.1//EN" "http://www.w3.org/Graphics/SVG/1.1/DTD/svg11.dtd">
<svg version="1.1" id="Layer" xmlns="http://www.w3.org/2000/svg" xmlns:xlink="http://www.w3.org/1999/xlink" x="0px" y="0px"
	 viewBox="-244 -244 1000 1000" enable-background="new -244 -244 1000 1000" xml:space="preserve">
<path d="M297.5,712V-115l301.7,316.7c15.8,16.6,42,17.2,58.6,1.4c16.6-15.8,17.2-42,1.4-58.6L314.6-217.2
	c-15.7-15.7-36.5-24.3-58.6-24.3c-22.1,0-43,8.6-59.3,25l-343.8,361c-7.6,8-11.4,18.3-11.4,28.6c0,10.9,4.3,21.9,12.9,30
	c16.6,15.8,42.8,15.2,58.6-1.4l301.7-318V712c0,22.9,18.6,41.5,41.5,41.5S297.5,734.9,297.5,712L297.5,712z"/>
</svg>
