<?xml version="1.0" encoding="utf-8"?>
<!-- Generator: Adobe Illustrator 17.1.0, SVG Export Plug-In . SVG Version: 6.00 Build 0)  -->
<!DOCTYPE svg PUBLIC "-//W3C//DTD SVG 1.1//EN" "http://www.w3.org/Graphics/SVG/1.1/DTD/svg11.dtd">
<svg version="1.1" id="Capa_1" xmlns="http://www.w3.org/2000/svg" xmlns:xlink="http://www.w3.org/1999/xlink" x="0px" y="0px"
	 viewBox="0 0 1000 1000" enable-background="new 0 0 1000 1000" xml:space="preserve">

<g>
	<path fill="#FFD064" d="M994,501c0,211.6-133.1,392.1-320.1,462.5c-54.1,20.4-112.7-50-173.9-50c-71.6,0-107.5,14.6-168.9-12.8
		c-44.4-19.8-117.5,5.8-153.8-25.6C72.4,784.5,6,650.5,6,501C6,228.2,227.2,7,500,7S994,228.2,994,501z"/>
	<g>
		<path fill="#F9F6F9" d="M712.5,218.4c70.1,0,127.1-57,127.1-127.1c0-23.6-6.5-46.2-18.2-65.7c-14.6-24.2-49.3-24.9-64.8-1.4
			c-8.2,12.4-9,28.5-1.3,41.2c4.6,7.7,7.2,16.6,7.2,25.8c0,27.5-22.4,50-50,50V218.4z"/>
		<path fill="#DDDAEC" d="M786.7,65.4c4.6,7.7,7.2,16.6,7.2,25.9c0,27.5-22.4,50-50,50l-26.5-0.2c25.3-2.4,45.1-23.8,45.1-49.7
			c0-9.3-2.5-18.2-7.2-25.9c-3.6-5.9-5.3-12.6-5.3-19.3c0-7.6,2.3-15.3,6.6-21.9C767.5,7.6,788,3.1,804.2,10.3
			c-6.3,2.8-12,7.4-16.3,13.9c-4.4,6.6-6.6,14.3-6.6,21.9C781.4,52.8,783.1,59.5,786.7,65.4z"/>
		<path fill="#DD636E" d="M793.3,719.1c-25.5,0-46.2-20.7-46.2-46.2V481.4h92.4v191.5C839.5,698.4,818.8,719.1,793.3,719.1z"/>
		<path fill="#687780" d="M673.9,963.5C619.8,983.9,561.2,995,500,995c-123.3,0-236.1-45.2-322.7-119.9
			c38.7-67.2,111.3-112.4,194.4-112.4h79.2C566.9,762.6,662.3,850.6,673.9,963.5L673.9,963.5z"/>
		<path fill="#546066" d="M485.8,765.3c-96.1,15-171.9,90.9-186.7,187c-44.4-19.8-85.4-46-121.7-77.3
			c38.7-67.2,111.3-112.4,194.4-112.4h79.2C462.8,762.6,474.4,763.6,485.8,765.3L485.8,765.3z"/>
		<circle fill="#EDBB9C" cx="182.6" cy="499.3" r="98.4"/>
		<path fill="#DEA080" d="M138.7,499.3c0,12.6,5.3,24,13.8,32c1.2-10.7,10.3-19.1,21.3-19.1c11.8,0,21.4,9.6,21.4,21.4
			c0,2.9-0.6,5.7-1.6,8.2c18.9-4.9,32.9-22.1,32.9-42.5c0-24.3-19.7-43.9-43.9-43.9S138.7,475.1,138.7,499.3L138.7,499.3z"/>
		<path fill="#F2D1BC" d="M327.7,669.1v125.5c0,46.2,37.4,83.6,83.6,83.6c46.2,0,83.7-37.4,83.7-83.6V669.1H327.7z"/>
		<path fill="#EDBB9C" d="M437.3,874c-8.2,2.7-16.9,4.1-26,4.1c-46.2,0-83.6-37.4-83.6-83.6V669.1h52v125.5
			C379.7,831.7,403.8,863.1,437.3,874L437.3,874z"/>
		<path fill="#EDBB9C" d="M327.7,669.1v111.2c23.6,6.1,48.4,9.3,73.9,9.3H495V669.1H327.7z"/>
		<path fill="#F2D1BC" d="M407.1,221.3h172.3c143.7,0,260.1,116.5,260.1,260.1S723.1,741.6,579.4,741.6H407.1
			C263.4,741.6,215,625.1,215,481.4C215,337.8,263.4,221.3,407.1,221.3L407.1,221.3z"/>
		<path fill="#EDBB9C" d="M391.7,665.4c47.1,47.1,112.1,76.2,184,76.2H406.8c-71.8,0-136.9-29.1-183.9-76.2
			c-47.1-47.1-7.9-112.1-7.9-183.9c0-143.7,48.2-260.1,191.8-260.1h168.9c-143.7,0-260.1,116.5-260.1,260.1
			C315.5,553.3,344.7,618.3,391.7,665.4L391.7,665.4z"/>
		<path fill="#F9F6F9" d="M590.2,427.2c0,22.7,7.5,43.6,20.3,60.3c8.3-10.9,18.8-20.1,30.9-26.8c14.4-8,11.8-36.3,29.4-36.3
			c7.5,0,34,24.6,41,26.2c23.3,5.2,43.6,18.6,57.5,37c12.7-16.7,20.3-37.6,20.3-60.3c0-55.1-44.6-99.7-99.7-99.7
			C634.8,327.5,590.2,372.1,590.2,427.2L590.2,427.2z"/>
		<path fill="#545058" d="M626.8,427.2c0,13.2,5.6,25.1,14.6,33.5c14.4-8,30.9-12.6,48.5-12.6c7.5,0,14.8,0.8,21.9,2.4
			c4-6.8,6.4-14.8,6.4-23.3c0-25.2-20.4-45.7-45.7-45.7C647.2,381.5,626.8,401.9,626.8,427.2L626.8,427.2z"/>
		<path fill="#F9F6F9" d="M316.6,427.2c0,22.7,7.6,43.6,20.3,60.3c11-14.5,25.9-25.9,43.1-32.6c11.3-4.4,23.5-45.5,36.3-45.5
			s25.1,41.1,36.3,45.5c17.2,6.7,32.1,18.1,43.1,32.6c12.7-16.7,20.3-37.6,20.3-60.3c0-55.1-44.6-99.7-99.7-99.7
			S316.6,372.1,316.6,427.2L316.6,427.2z"/>
		<path fill="#545058" d="M370.6,427.2c0,10.4,3.5,20,9.4,27.7c11.3-4.4,23.5-6.8,36.3-6.8s25.1,2.4,36.3,6.8
			c5.9-7.7,9.4-17.3,9.4-27.7c0-25.2-20.4-45.7-45.7-45.7S370.6,401.9,370.6,427.2z"/>
		<path fill="#9D6B6B" d="M624.1,88.1H370.8c-104.7,0-189.6,84.9-189.6,189.6V296h632.4v-18.3C813.7,173,728.8,88.1,624.1,88.1z"/>
		<path fill="#8B5E5E" d="M530.5,88.1c-104.7,0-189.6,84.9-189.6,189.6V296H181.2v-18.3c0-104.7,84.9-189.6,189.6-189.6L530.5,88.1z
			"/>
		<path fill="#D6D6D6" d="M557.3,56.9h-36.4c-22.5,0-40.8,18.3-40.8,40.8v208.5h118.1V97.8C598.1,75.2,579.8,56.9,557.3,56.9
			L557.3,56.9z"/>
		<path fill="#C2C2C2" d="M560.6,57.1c-21,1.7-37.5,19.2-37.5,40.7v208.5h-43V97.8c0-22.5,18.3-40.8,40.8-40.8h36.4
			C558.4,56.9,559.5,57,560.6,57.1L560.6,57.1z"/>
		<path fill="#DD636E" d="M279.8,425.1V324.3h-92.4v328.6c0,25.5,20.7,46.2,46.2,46.2c5.2,0,10.2-0.9,14.9-2.5v12.6
			c0,25.5,20.7,46.2,46.2,46.2c14.2,0,26.8-6.4,35.3-16.4c5.4,19.5,23.3,33.8,44.5,33.8c14.6,0,27.6-6.8,36.1-17.4
			c4.5,20.7,23,36.3,45.1,36.3c14.3,0,27.1-6.5,35.6-16.8c8.5,10.2,21.3,16.8,35.6,16.8c16.7,0,31.4-8.9,39.5-22.2
			c8.1,13.3,22.8,22.2,39.5,22.2c22.3,0,40.8-15.7,45.2-36.7c8.5,10.8,21.6,17.8,36.4,17.8c25.5,0,46.2-20.7,46.2-46.2l78.9-221.4
			H360C315.7,505.2,279.8,469.3,279.8,425.1L279.8,425.1z"/>
		<path fill="#DA4A54" d="M374.5,772.8L374.5,772.8c-21.3,0-39.2-14.3-44.6-33.8c-4.2,5-9.5,9.1-15.5,12c-6,2.8-12.7,4.4-19.8,4.4
			c-25.5,0-46.2-20.7-46.2-46.2v-12.6c-4.7,1.6-9.7,2.5-14.9,2.5c-25.5,0-46.2-20.7-46.2-46.2V324.3h92.4v100.8
			c0,42,32.2,76.4,73.3,79.9v228.8C353.1,750.2,361.6,764.6,374.5,772.8L374.5,772.8z"/>
		<path fill="#D6D6D6" d="M797.2,255.6h-606c-23.3,0-42.2,18.9-42.2,42.2v33.6c0,23.3,18.9,42.2,42.2,42.2h606
			c23.3,0,42.2-18.9,42.2-42.2v-33.6C839.4,274.5,820.5,255.6,797.2,255.6z"/>
		<path fill="#C2C2C2" d="M347,373.7H191.1c-23.3,0-42.2-18.9-42.2-42.2v-33.7c0-23.3,18.9-42.2,42.2-42.2H347
			c-23.3,0-42.2,18.9-42.2,42.2v33.7C304.8,354.8,323.7,373.7,347,373.7z"/>
		<path fill="#DD636E" d="M766.4,742.9c-25.5,0-46.2-20.7-46.2-46.2V505.2h119.3l-26.9,191.5C812.6,722.2,791.9,742.9,766.4,742.9
			L766.4,742.9z"/>
		<path fill="#EDBB9C" d="M647.2,503.9c-25.5,25.5-66.9,25.5-92.4,0l-11.3-11.3l46.2-46.2c15.9-15.9,41.6-15.9,57.5,0
			C663.1,462.3,663.1,488.1,647.2,503.9z"/>
		<path fill="#DA4A54" d="M469.1,608.4c-30.9,0-58.4-19.6-68.4-48.9c-2.2-6.3,1.2-13.2,7.5-15.4c6.3-2.2,13.2,1.2,15.4,7.5
			c6.6,19.4,24.9,32.5,45.5,32.5c20.6,0,38.8-13.1,45.5-32.5c2.2-6.3,9-9.7,15.4-7.5c6.3,2.2,9.7,9,7.5,15.4
			C527.5,588.7,500,608.4,469.1,608.4z"/>
		<path fill="#F9F6F9" d="M327.6,218.4c-70.1,0-127.1-57-127.1-127.1c0-23.6,6.5-46.2,18.2-65.7c14.6-24.2,49.3-24.9,64.8-1.4
			c8.2,12.4,9,28.5,1.3,41.2c-4.6,7.7-7.2,16.6-7.2,25.8c0,27.5,22.4,50,50,50V218.4z"/>
		<path fill="#DDDAEC" d="M327.6,212.2v6.3c-70.1,0-127.2-57-127.2-127.1c0-23.6,6.5-46.2,18.2-65.7c11.4-19,35.4-23.5,52.6-13.2
			c-5.2,3.1-9.7,7.5-13.2,13.2c-11.8,19.5-18.2,42.1-18.2,65.7C239.8,147.6,276.7,195.5,327.6,212.2L327.6,212.2z"/>
	</g>
</g>
</svg>
